<svg width="24" height="25" viewBox="0 0 24 25" fill="none" xmlns="http://www.w3.org/2000/svg">
<g id="&#229;&#156;&#168;&#231;&#186;&#191;&#229;&#156;&#176;&#229;&#155;&#190;-Online-map">
<path id="stroke3 (Stroke)" fill-rule="evenodd" clip-rule="evenodd" d="M4.83274 6.64931H7.23313C7.43152 5.91438 7.6699 5.23212 7.94349 4.61654C8.05563 4.36422 8.17499 4.12018 8.30159 3.88624C6.92705 4.50653 5.73597 5.4621 4.83274 6.64931ZM12 1.09375C7.67954 1.09375 3.94272 3.58472 2.14395 7.20427C1.41142 8.6783 1 10.3394 1 12.0938C1 13.8481 1.41142 15.5092 2.14395 16.9832C3.94272 20.6028 7.67954 23.0938 12 23.0938C16.3205 23.0938 20.0573 20.6028 21.856 16.9832C22.5886 15.5092 23 13.8481 23 12.0938C23 10.3394 22.5886 8.6783 21.856 7.20427C20.0573 3.58472 16.3205 1.09375 12 1.09375ZM12 3.09375C11.7117 3.09375 11.3618 3.22103 10.9594 3.60399C10.5518 3.99186 10.1393 4.60038 9.77111 5.42882C9.60544 5.80158 9.45272 6.20994 9.31551 6.64931H14.6845C14.5473 6.20994 14.3946 5.80158 14.2289 5.42882C13.8607 4.60038 13.4482 3.99186 13.0406 3.60399C12.6382 3.22103 12.2883 3.09375 12 3.09375ZM16.7669 6.64931C16.5685 5.91438 16.3301 5.23212 16.0565 4.61654C15.9444 4.36422 15.825 4.12019 15.6984 3.88624C17.073 4.50654 18.264 5.4621 19.1673 6.64931H16.7669ZM15.1598 8.64931H8.84019C8.65781 9.70739 8.55556 10.8687 8.55556 12.0938C8.55556 13.3188 8.65781 14.4801 8.84019 15.5382L15.1598 15.5382C15.3422 14.4801 15.4444 13.3188 15.4444 12.0938C15.4444 10.8687 15.3422 9.70739 15.1598 8.64931ZM17.1863 15.5382C17.3546 14.4512 17.4444 13.292 17.4444 12.0938C17.4444 10.8955 17.3546 9.73627 17.1863 8.64931H20.3176C20.7571 9.70931 21 10.8721 21 12.0938C21 13.3154 20.7571 14.4782 20.3176 15.5382H17.1863ZM14.6845 17.5382H9.31551C9.45272 17.9776 9.60544 18.3859 9.77111 18.7587C10.1393 19.5871 10.5518 20.1956 10.9594 20.5835C11.3618 20.9665 11.7117 21.0938 12 21.0938C12.2883 21.0938 12.6382 20.9665 13.0406 20.5835C13.4482 20.1956 13.8607 19.5871 14.2289 18.7587C14.3946 18.3859 14.5473 17.9776 14.6845 17.5382ZM15.6984 20.3013C15.825 20.0673 15.9444 19.8233 16.0565 19.571C16.3301 18.9554 16.5685 18.2731 16.7669 17.5382H19.1673C18.264 18.7254 17.073 19.681 15.6984 20.3013ZM8.30159 20.3013C8.17499 20.0673 8.05563 19.8233 7.94349 19.571C7.6699 18.9554 7.43152 18.2731 7.23313 17.5382H4.83274C5.73597 18.7254 6.92704 19.681 8.30159 20.3013ZM3.68237 15.5382H6.8137C6.6454 14.4512 6.55556 13.292 6.55556 12.0938C6.55556 10.8955 6.6454 9.73627 6.8137 8.64931H3.68237C3.24286 9.70931 3 10.8721 3 12.0938C3 13.3154 3.24286 14.4782 3.68237 15.5382Z" fill="black" fill-opacity="0.9"/>
</g>
</svg>
